<svg width="40" height="40" viewBox="0 0 40 40" fill="none" xmlns="http://www.w3.org/2000/svg">
<path d="M31.6665 11.6667L30.2215 31.9033C30.1616 32.7443 29.7853 33.5314 29.1684 34.106C28.5514 34.6806 27.7396 35 26.8965 35H13.1032C12.2601 35 11.4483 34.6806 10.8313 34.106C10.2143 33.5314 9.83803 32.7443 9.77817 31.9033L8.33317 11.6667M16.6665 18.3333V28.3333M23.3332 18.3333V28.3333M24.9998 11.6667V6.66667C24.9998 6.22464 24.8242 5.80072 24.5117 5.48816C24.1991 5.17559 23.7752 5 23.3332 5H16.6665C16.2245 5 15.8006 5.17559 15.488 5.48816C15.1754 5.80072 14.9998 6.22464 14.9998 6.66667V11.6667M6.6665 11.6667H33.3332" stroke="#FF0000" stroke-width="2" stroke-linecap="round" stroke-linejoin="round"/>
</svg>
